<?xml version="1.0" encoding="utf-8"?>
<!-- Generator: Adobe Illustrator 24.0.2, SVG Export Plug-In . SVG Version: 6.00 Build 0)  -->
<svg version="1.1" id="Dribbble" xmlns="http://www.w3.org/2000/svg" xmlns:xlink="http://www.w3.org/1999/xlink" x="0px" y="0px"
	 viewBox="0 0 128 128" style="enable-background:new 0 0 128 128;" xml:space="preserve">
<style type="text/css">
	.st0{fill:none;}
	.st1{fill:#002366;}
</style>
<g id="dribbble-dribbble">
	<rect id="dribbble-back" class="st0" width="128" height="128"/>
	<path id="dribbble-dribble" class="st1" d="M80.9,88.7c-1.2-7.2-3.2-14-5.6-20.4c5.2-0.7,11.3-0.5,18.3,0.8
		C92.1,77.2,87.4,84.2,80.9,88.7z M45.8,87.8c5.1-7.6,12.1-15.1,23.5-18.3c2.7,6.9,4.9,14.3,6,22.2c-3.5,1.4-7.4,2.2-11.4,2.2
		C57.2,93.9,50.9,91.6,45.8,87.8z M34.1,64v-1h0.2c10.7,0,21.3-0.7,30.8-3.5c0.7,1.4,1.4,2.9,2.1,4.4c-12.5,3.7-20.3,11.9-25.6,19.7
		C36.9,78.4,34.1,71.5,34.1,64z M51.1,37c3,4.1,7.1,10,11.1,17.2c-8.4,2.3-17.8,2.9-27.3,3C37,48.2,43.1,40.9,51.1,37z M83.4,41.2
		c-4.2,5.1-9.5,8.7-15.5,11.1c-3.8-7.1-7.8-13-10.9-17.4c2.3-0.5,4.6-0.8,7-0.8C71.4,34.1,78.2,36.8,83.4,41.2z M87.5,45.5
		c3.9,4.9,6.2,11,6.4,17.7c-8.1-1.4-15-1.5-21-0.5c-0.8-1.7-1.6-3.4-2.4-5.1C77,55,82.8,51.1,87.5,45.5z M64,28.2
		c-19.8,0-35.8,16-35.8,35.8c0,19.8,16,35.8,35.8,35.8c19.8,0,35.8-16,35.8-35.8C99.8,44.2,83.8,28.2,64,28.2z"/>
</g>
</svg>
