<?xml version="1.0" encoding="utf-8"?>
<!-- Generator: Adobe Illustrator 24.0.2, SVG Export Plug-In . SVG Version: 6.00 Build 0)  -->
<svg version="1.1" id="Linkedin" xmlns="http://www.w3.org/2000/svg" xmlns:xlink="http://www.w3.org/1999/xlink" x="0px" y="0px"
	 viewBox="0 0 128 128" style="enable-background:new 0 0 128 128;" xml:space="preserve">
<style type="text/css">
	.st0{fill:#002366;}
	.st1{fill:#FDB202;}
</style>
<g>
	<rect id="linkedin-back" class="st0" width="128" height="128"/>
	<g id="linkedin-linkedin">
		<path class="st1" d="M29.1,51.7h14.9v47.8H29.1V51.7z M36.5,28c4.8,0,8.6,3.9,8.6,8.6c0,4.8-3.9,8.6-8.6,8.6
			c-4.8,0-8.6-3.9-8.6-8.6C27.9,31.8,31.7,28,36.5,28"/>
		<path class="st1" d="M53.3,51.7h14.2v6.5h0.2c2-3.8,6.8-7.7,14.1-7.7c15,0,17.8,9.9,17.8,22.8v26.2H84.7V76.3
			c0-5.5-0.1-12.7-7.7-12.7c-7.7,0-8.9,6-8.9,12.3v23.6H53.3V51.7z"/>
	</g>
</g>
</svg>
