<?xml version="1.0" encoding="utf-8"?>
<!-- Generator: Adobe Illustrator 23.0.6, SVG Export Plug-In . SVG Version: 6.00 Build 0)  -->
<svg version="1.1" xmlns="http://www.w3.org/2000/svg" xmlns:xlink="http://www.w3.org/1999/xlink" x="0px" y="0px"
	 viewBox="0 0 3700 3700" style="enable-background:new 0 0 3700 3700;" xml:space="preserve">
<g id="guide-1" style="display:none;">
	<circle style="display:inline;fill:none;stroke:#000000;stroke-miterlimit:10;" cx="1850" cy="1850" r="50"/>
	<circle style="display:inline;fill:none;stroke:#000000;stroke-miterlimit:10;" cx="1850" cy="1850" r="100"/>
	<circle style="display:inline;fill:none;stroke:#000000;stroke-miterlimit:10;" cx="1850" cy="1850" r="150"/>
	<circle style="display:inline;fill:none;stroke:#000000;stroke-miterlimit:10;" cx="1850" cy="1850" r="250"/>
	<circle style="display:inline;fill:none;stroke:#000000;stroke-miterlimit:10;" cx="1850" cy="1850" r="400"/>
	<circle style="display:inline;fill:none;stroke:#000000;stroke-miterlimit:10;" cx="1850" cy="1850" r="650"/>
	<circle style="display:inline;fill:none;stroke:#000000;stroke-miterlimit:10;" cx="1850" cy="1850" r="1050"/>
	<circle style="display:inline;fill:none;stroke:#000000;stroke-miterlimit:10;" cx="400" cy="400" r="400"/>
	<circle style="display:inline;fill:none;stroke:#000000;stroke-miterlimit:10;" cx="3300" cy="3300" r="400"/>
</g>
<g id="Layer_4">
	<g>
		<circle style="fill:#002366;" cx="1850" cy="1850" r="1650"/>
	</g>
</g>
<g id="logo" style="display:none;">
	<polygon style="display:inline;fill:none;stroke:#FDB202;stroke-width:100;stroke-linejoin:round;stroke-miterlimit:10;" points="
		1850.9935303,800 1850.807251,2500 2100,1931.2824707 1200,1932.8970947 1850.807251,2900 2500,1769.8295898 1200,1770.6368408 	
		"/>
</g>
<g id="logo_1_">
	<polygon style="fill:none;stroke:#FFFFFF;stroke-width:90;stroke-linejoin:round;stroke-miterlimit:10;" points="1851.1619873,622 
		1850.9440918,2610.1904297 2142.3808594,1945.0618896 1089.8095703,1946.9500732 1850.9440918,3078 2610.1904297,1756.2387695 
		1089.8095703,1757.1828613 	"/>
</g>
<g id="Layer_5" style="display:none;">
	
		<line style="display:inline;fill:none;stroke:#000000;stroke-width:3;stroke-miterlimit:10;" x1="1390" y1="3700" x2="3518" y2="0"/>
	
		<line style="display:inline;fill:none;stroke:#000000;stroke-width:3;stroke-miterlimit:10;" x1="-92.5" y1="3700.5" x2="2386.5" y2="0.5"/>
</g>
<g id="Layer_3" style="display:none;">
	<g style="display:inline;">
		<path d="M2459.6000977,500c99.9975586,0,196.9506836,19.5625,288.1660156,58.1431274
			c43.8505859,18.5474854,86.1513672,41.508728,125.7290039,68.2462769
			c39.2268066,26.5012207,76.1174316,56.9393311,109.6467285,90.46875
			c33.5292969,33.5293579,63.9675293,70.4199829,90.46875,109.6468506
			c26.7375488,39.5775146,49.6987305,81.8781128,68.2463379,125.7287598
			C3180.4375,1043.4493408,3200,1140.4024658,3200,1240.4000244v1219.2000732
			c0,99.9975586-19.5625,196.9506836-58.1430664,288.1660156c-18.5476074,43.8505859-41.5087891,86.1513672-68.2463379,125.7290039
			c-26.5012207,39.2268066-56.9394531,76.1174316-90.46875,109.6467285s-70.4199219,63.9675293-109.6467285,90.46875
			c-39.5776367,26.7375488-81.878418,49.6987305-125.7290039,68.2463379
			C2656.5507813,3180.4375,2559.5976563,3200,2459.6000977,3200H1240.4000244
			c-99.9975586,0-196.9506836-19.5625-288.1662598-58.1430664c-43.850647-18.5476074-86.1512451-41.5087891-125.7287598-68.2463379
			c-39.2268677-26.5012207-76.1174927-56.9394531-109.6468506-90.46875
			c-33.5294189-33.5292969-63.9675293-70.4199219-90.46875-109.6467285
			c-26.7375488-39.5776367-49.6987915-81.878418-68.2462769-125.7290039C519.5625,2656.5507813,500,2559.5976563,500,2459.6000977
			V1240.4000244c0-99.9975586,19.5625-196.9506836,58.1431274-288.1662598
			c18.5474854-43.850647,41.508728-86.1512451,68.2462769-125.7287598
			c26.5012207-39.2268677,56.9393311-76.1174927,90.46875-109.6468506
			c33.5293579-33.5294189,70.4199829-63.9675293,109.6468506-90.46875
			c39.5775146-26.7375488,81.8781128-49.6987915,125.7287598-68.2462769C1043.4493408,519.5625,1140.4024658,500,1240.4000244,500
			H2459.6000977 M2459.6000977,400H1240.4000244C776.2600098,400,400,776.2600098,400,1240.4000244v1219.2000732
			C400,2923.7399902,776.2600098,3300,1240.4000244,3300h1219.2000732C2923.7399902,3300,3300,2923.7399902,3300,2459.6000977
			V1240.4000244C3300,776.2600098,2923.7399902,400,2459.6000977,400L2459.6000977,400z"/>
	</g>
</g>
</svg>
